<svg width="38" height="37" viewBox="0 0 38 37" fill="none" xmlns="http://www.w3.org/2000/svg">
<g clip-path="url(#clip0)">
<path d="M19 0C8.52347 0 0 8.2543 0 18.4V19.0133H11.5841V17.7865H1.27768C1.61222 8.59984 9.43357 1.22673 19 1.22673C28.5664 1.22673 36.3878 8.59984 36.7223 17.7867H26.348V19.0135H38V18.4C38 8.2543 29.4765 0 19 0Z" fill="white"/>
<path d="M37.3667 17.7867H26.348C25.9985 17.7867 25.7148 18.0615 25.7148 18.4C25.7148 18.7385 25.9985 19.0133 26.348 19.0133H36.7223C36.388 28.2002 28.5666 35.5733 19 35.5733C9.43339 35.5733 1.61222 28.2002 1.27768 19.0133H11.8423C12.1919 19.0133 12.4756 18.7385 12.4756 18.4C12.4756 18.0615 12.1919 17.7867 11.8423 17.7867H0.633272C0.283701 17.7867 0 18.0615 0 18.4C0 28.5457 8.52347 36.8 19 36.8C29.4765 36.8 38 28.5457 38 18.4C38 18.0615 37.7163 17.7867 37.3667 17.7867Z" fill="white"/>
<path d="M19 11.04C14.8093 11.04 11.4 14.3416 11.4 18.4C11.4 22.4584 14.8093 25.76 19 25.76C23.1908 25.76 26.6 22.4584 26.6 18.4C26.6 14.3416 23.1908 11.04 19 11.04ZM19 24.5333C15.5078 24.5333 12.6668 21.7819 12.6668 18.4C12.6668 15.0181 15.5078 12.2667 19 12.2667C22.4922 12.2667 25.3333 15.0181 25.3333 18.4C25.3333 21.7819 22.4922 24.5333 19 24.5333Z" fill="white"/>
<path d="M19 13.4933C16.2064 13.4933 13.9333 15.6945 13.9333 18.4C13.9333 21.1056 16.2062 23.3067 19 23.3067C21.7938 23.3067 24.0667 21.1056 24.0667 18.4C24.0667 15.6945 21.7936 13.4933 19 13.4933ZM19 22.08C16.9046 22.08 15.2 20.4292 15.2 18.4C15.2 16.3708 16.9046 14.72 19 14.72C21.0954 14.72 22.8 16.3708 22.8 18.4C22.8 20.4292 21.0954 22.08 19 22.08Z" fill="white"/>
</g>
<defs>
<clipPath id="clip0">
<rect width="38" height="36.8" fill="white"/>
</clipPath>
</defs>
</svg>
