<svg width="38" height="37" viewBox="0 0 38 37" fill="none" xmlns="http://www.w3.org/2000/svg">
<path d="M16.8217 21.6914C16.4506 21.3919 15.8494 21.3919 15.4784 21.6914C15.1073 21.9909 15.1073 22.476 15.4784 22.7754L16.4284 23.5421C16.6139 23.6918 16.8571 23.7667 17.1001 23.7667C17.3432 23.7667 17.5862 23.6918 17.7718 23.5421C18.143 23.2426 18.143 22.7575 17.7718 22.458L16.8217 21.6914Z" fill="white"/>
<path d="M21.1784 21.6914L20.2284 22.4581C19.8572 22.7576 19.8572 23.2427 20.2284 23.5421C20.4139 23.6918 20.657 23.7667 20.9001 23.7667C21.1431 23.7667 21.3862 23.6918 21.5718 23.5421L22.5218 22.7754C22.8929 22.4759 22.8929 21.9908 22.5218 21.6914C22.1507 21.3919 21.5495 21.3919 21.1784 21.6914Z" fill="white"/>
<path d="M38 19.2986C38 11.6729 30.4521 5.38852 20.8337 4.67215L22.6108 2.76C22.9243 2.42162 22.839 1.94092 22.4196 1.68713C22.004 1.43406 21.4084 1.50069 21.0892 1.84059L19.5714 3.4735L18.9871 0.641146C18.8999 0.22334 18.4026 -0.059629 17.8942 0.010736C17.3765 0.0803823 17.0258 0.474901 17.113 0.892707L17.4225 2.39114L16.9108 1.84059C16.5935 1.50069 15.9979 1.43327 15.5804 1.68713C15.1611 1.94092 15.0757 2.42162 15.3892 2.76L17.1663 4.67215C7.54793 5.38852 0 11.6729 0 19.2986C0 22.7407 1.63509 25.3848 4.82557 27.1923C4.16606 28.0389 3.79993 28.9315 3.79993 29.9001C3.79993 34.6722 8.4887 36.8 18.9999 36.8C29.5111 36.8 34.1999 34.6722 34.1999 29.9001C34.1999 28.9315 33.8339 28.0387 33.1743 27.1923C36.3643 25.3848 38 22.7406 38 19.2986ZM19.0001 35.2666C5.70016 35.2666 5.70016 31.6422 5.70016 29.9C5.70016 28.7005 6.37374 27.7003 7.88219 26.6567C9.14758 25.7822 9.76923 24.4495 9.54836 23.0929C9.43703 22.4146 9.52609 21.8688 9.78402 21.6315C9.83229 21.5866 9.96214 21.4667 10.3722 21.4667C12.4503 21.4667 14.8364 20.4844 16.4729 19.6602C16.8905 19.4505 17.2133 19.1908 17.4972 18.9624C18.1633 18.4278 18.9834 18.4009 18.9927 18.4002C19.0001 18.4002 19.8388 18.4293 20.503 18.9609C20.7869 19.1908 21.1098 19.4506 21.5272 19.6602C23.1637 20.4845 25.5499 21.4667 27.628 21.4667C28.038 21.4667 28.168 21.5866 28.2162 21.6315C28.4741 21.8688 28.5631 22.4146 28.4518 23.0922C28.231 24.4495 28.8526 25.7822 30.118 26.6567V26.6574C31.6265 27.7003 32.3 28.7006 32.3 29.9001C32.3 31.6422 32.3 35.2666 19.0001 35.2666ZM31.9782 25.9998C31.7701 25.831 31.5924 25.6582 31.3537 25.4932C30.58 24.9564 30.1997 24.1344 30.3369 23.2921C30.5243 22.1331 30.285 21.2092 29.6448 20.6207C29.3034 20.307 28.6781 19.9334 27.6279 19.9334C25.9135 19.9334 23.6999 18.9473 22.5328 18.3589C22.299 18.2414 22.0783 18.0631 21.8426 17.8737C20.631 16.905 19.1707 16.8675 18.9926 16.8668C18.8294 16.8675 17.3691 16.905 16.1575 17.8753C15.9218 18.0632 15.701 18.2414 15.4673 18.3589C14.3002 18.9473 12.0866 19.9334 10.3722 19.9334C9.32196 19.9334 8.69666 20.307 8.35528 20.6207C7.7151 21.2092 7.47579 22.1331 7.66318 23.2928C7.80052 24.1343 7.42013 24.9564 6.64636 25.4924C6.40785 25.6575 6.23035 25.8302 6.02221 25.999C3.26369 24.4751 1.90005 22.2832 1.90005 19.2985C1.90005 12.0392 9.57054 6.1335 19 6.1335C28.4295 6.1335 36.0999 12.0392 36.0999 19.2985C36.1 22.2837 34.7376 24.4759 31.9782 25.9998Z" fill="white"/>
<path d="M27.5501 15.3334C28.0747 15.3334 28.5001 14.9901 28.5001 14.5667C28.5001 14.1432 28.0747 13.8 27.5501 13.8C27.0254 13.8 26.6 14.1432 26.6 14.5667C26.6 14.9901 27.0254 15.3334 27.5501 15.3334Z" fill="white"/>
<path d="M27.5501 10.7335C24.4069 10.7335 21.8501 12.4533 21.8501 14.5668C21.8501 16.6803 24.4069 18.4001 27.5501 18.4001C30.6933 18.4001 33.2501 16.6803 33.2501 14.5668C33.2501 12.4533 30.6932 10.7335 27.5501 10.7335ZM27.5501 16.8668C25.4552 16.8668 23.7501 15.8351 23.7501 14.5668C23.7501 13.2985 25.4552 12.2668 27.5501 12.2668C29.6449 12.2668 31.3501 13.2985 31.3501 14.5668C31.3501 15.8351 29.6449 16.8668 27.5501 16.8668Z" fill="white"/>
<path d="M10.4501 15.3334C10.9748 15.3334 11.4001 14.9901 11.4001 14.5667C11.4001 14.1432 10.9748 13.8 10.4501 13.8C9.92543 13.8 9.50009 14.1432 9.50009 14.5667C9.50009 14.9901 9.92543 15.3334 10.4501 15.3334Z" fill="white"/>
<path d="M10.4501 10.7335C7.30692 10.7335 4.75012 12.4533 4.75012 14.5668C4.75012 16.6803 7.30692 18.4001 10.4501 18.4001C13.5933 18.4001 16.1501 16.6803 16.1501 14.5668C16.1501 12.4533 13.5932 10.7335 10.4501 10.7335ZM10.4501 16.8668C8.35527 16.8668 6.65009 15.8351 6.65009 14.5668C6.65009 13.2985 8.35527 12.2668 10.4501 12.2668C12.5449 12.2668 14.2501 13.2985 14.2501 14.5668C14.2501 15.8351 12.5449 16.8668 10.4501 16.8668Z" fill="white"/>
</svg>
